<svg xmlns="http://www.w3.org/2000/svg" width="691" height="361" viewBox="0 0 691 361">
<g>
<path d="M 203.10 231.57 C200.09,232.45 194.61,234.68 190.93,236.54 C187.25,238.39 183.96,239.63 183.62,239.29 C183.28,238.95 183.00,227.22 183.00,213.23 L 183.00 187.80 L 185.88 185.11 C189.47,181.76 201.66,175.70 209.17,173.54 C212.30,172.64 217.45,171.81 220.64,171.70 L 226.42 171.50 L 227.15 175.50 C227.56,177.70 227.91,189.68 227.94,202.13 C227.99,220.23 227.72,224.98 226.62,225.90 C225.85,226.54 221.48,227.71 216.90,228.52 C212.33,229.32 206.11,230.70 203.10,231.57 ZM 178.98 212.34 C178.98,226.18 178.61,238.06 178.18,238.75 C177.59,239.67 174.95,238.74 167.94,235.13 C160.00,231.05 156.99,230.07 149.00,228.99 C143.77,228.28 138.48,227.32 137.23,226.87 L 134.97 226.04 L 135.23 198.77 L 135.50 171.50 L 138.64 171.20 C146.80,170.40 168.15,178.05 175.85,184.52 L 179.00 187.18 ZM 331.83 212.34 C328.66,214.38 319.04,215.35 316.50,213.88 C309.48,209.83 306.00,203.52 306.00,194.86 C306.00,180.30 316.29,172.01 328.94,176.37 C331.38,177.21 333.73,177.66 334.18,177.39 C334.63,177.11 335.00,172.86 335.00,167.94 L 335.00 159.00 L 339.39 159.00 C342.48,159.00 343.97,159.47 344.39,160.58 C344.73,161.45 345.00,173.12 345.00,186.51 C345.00,207.31 344.77,211.09 343.43,212.43 C341.42,214.44 338.14,214.44 335.91,212.42 C334.36,211.01 333.92,211.00 331.83,212.34 ZM 189.88 248.36 C183.78,251.25 178.87,251.67 175.00,249.63 C162.51,243.06 155.01,241.12 139.00,240.34 C132.12,240.01 125.94,239.29 125.25,238.74 C123.64,237.47 123.44,186.91 125.04,183.93 C126.27,181.63 127.63,181.48 129.57,183.43 C130.72,184.58 131.00,189.18 131.00,207.31 C131.00,224.07 131.32,230.01 132.25,230.74 C132.94,231.29 136.65,232.04 140.50,232.42 C154.01,233.74 164.81,237.44 176.19,244.62 C180.94,247.62 182.34,247.60 186.44,244.48 C194.32,238.46 215.04,232.00 226.43,232.00 C228.17,232.00 230.14,231.46 230.80,230.80 C231.67,229.93 232.00,222.97 232.00,205.77 C232.00,185.42 232.22,181.85 233.51,181.36 C234.34,181.04 235.69,181.33 236.51,182.01 C238.68,183.81 238.73,236.12 236.57,238.28 C235.57,239.29 231.28,239.92 222.05,240.42 C208.35,241.17 201.54,242.85 189.88,248.36 ZM 475.65 211.47 C470.72,214.35 462.43,215.57 457.82,214.08 C456.35,213.60 453.34,211.76 451.12,209.98 C441.92,202.59 441.81,187.38 450.90,179.73 C460.28,171.85 477.15,174.73 482.24,185.08 C487.14,195.05 484.31,206.39 475.65,211.47 ZM 283.59 213.01 C276.94,213.02 269.89,213.29 267.92,213.61 C265.29,214.05 263.89,213.75 262.63,212.48 C261.09,210.94 260.92,208.31 261.06,187.69 C261.14,175.00 261.44,164.03 261.71,163.31 C262.10,162.30 266.29,162.00 280.09,162.00 L 297.96 162.00 L 298.57 164.41 C298.90,165.73 298.67,167.76 298.05,168.91 C297.00,170.86 296.09,171.00 284.41,171.00 L 271.90 171.00 L 272.50 182.50 L 296.50 183.50 L 296.50 191.50 L 271.91 193.28 L 272.50 204.50 L 284.29 205.00 C297.05,205.54 298.73,206.30 296.75,210.66 C295.71,212.93 295.29,213.00 283.59,213.01 ZM 552.40 213.48 C550.40,214.31 546.51,215.00 543.76,215.00 C539.29,215.00 538.36,214.59 534.88,211.12 C531.60,207.84 531.00,206.58 531.00,203.02 C531.00,199.68 531.59,198.25 533.84,196.15 C536.85,193.34 543.87,191.00 549.32,191.00 C556.01,191.00 558.17,186.16 552.46,183.98 C548.27,182.39 545.50,182.84 543.00,185.50 C540.53,188.13 537.15,188.69 533.97,186.98 C531.71,185.78 532.24,183.64 535.73,179.86 C538.86,176.47 545.66,174.56 551.97,175.31 C563.75,176.71 566.44,180.97 566.58,198.50 C566.64,205.10 566.47,211.29 566.22,212.25 C565.70,214.24 561.07,214.65 557.96,212.98 C556.57,212.24 555.04,212.37 552.40,213.48 ZM 407.75 212.07 C405.96,212.79 404.27,213.68 404.00,214.04 C403.73,214.40 402.94,214.51 402.25,214.27 C401.31,213.94 401.00,209.15 401.00,194.92 L 401.00 176.00 L 405.30 176.00 C407.67,176.00 410.09,176.49 410.69,177.09 C411.47,177.87 412.70,177.69 415.06,176.47 C418.92,174.48 426.81,174.99 430.61,177.48 C435.32,180.57 436.37,184.41 436.44,198.79 C436.51,213.22 436.23,213.95 430.79,213.98 C429.21,213.99 427.68,213.27 427.15,212.25 C426.64,211.29 426.15,205.33 426.06,199.01 C425.87,186.41 425.19,184.69 419.96,183.64 C413.05,182.26 411.00,186.08 411.00,200.33 L 411.00 210.76 ZM 194.86 155.77 C187.91,158.09 181.16,159.96 179.86,159.90 C177.20,159.80 157.77,153.00 157.00,151.91 C156.73,151.52 155.38,151.04 154.00,150.85 C152.32,150.62 151.50,149.87 151.50,148.58 C151.50,147.04 153.81,145.79 163.00,142.37 C179.33,136.28 184.27,136.47 204.75,143.98 C214.80,147.66 213.13,149.65 194.86,155.77 ZM 375.51 213.43 C368.93,216.18 364.40,215.24 359.23,210.08 C355.44,206.29 354.77,202.56 355.19,187.50 L 355.50 176.50 L 365.00 175.89 L 365.00 187.38 C365.00,200.16 365.73,203.12 369.46,205.57 C371.65,207.00 372.45,207.06 375.13,205.95 C379.74,204.04 381.00,199.97 381.00,187.03 L 381.00 176.00 L 390.04 176.00 L 389.50 213.50 L 387.16 213.83 C385.87,214.01 383.56,213.65 382.03,213.01 C379.82,212.10 378.50,212.18 375.51,213.43 ZM 510.89 214.06 C506.84,216.23 503.77,214.46 500.56,208.11 C497.50,202.07 488.00,178.58 488.00,177.05 C488.00,176.29 489.77,176.00 493.18,176.20 L 498.36 176.50 L 502.43 187.79 C504.67,194.00 506.95,199.11 507.50,199.15 C508.49,199.22 510.70,194.36 515.18,182.25 L 517.49 176.00 L 522.24 176.00 C525.50,176.00 527.00,176.41 527.00,177.31 C527.00,178.79 523.55,187.82 519.17,197.81 C517.55,201.49 515.42,206.44 514.44,208.81 C513.45,211.18 511.85,213.54 510.89,214.06 ZM 185.78 173.53 C183.43,174.87 181.27,175.93 181.00,175.88 C180.73,175.83 177.57,174.26 174.00,172.40 C170.43,170.54 166.54,169.01 165.36,169.01 C162.89,169.00 162.00,167.25 162.00,162.42 C162.00,159.36 162.29,159.00 164.75,158.99 C166.26,158.98 170.89,160.18 175.03,161.64 C182.21,164.18 182.71,164.23 186.03,162.72 C192.84,159.60 197.27,158.00 199.12,158.00 C200.71,158.00 201.00,158.77 201.00,162.96 C201.00,168.45 200.24,169.24 193.78,170.41 C191.74,170.78 188.14,172.18 185.78,173.53 ZM 457.69 203.20 C461.48,207.16 467.05,207.11 471.08,203.08 C473.60,200.56 474.00,199.40 474.00,194.67 C474.00,189.77 473.67,188.90 470.92,186.59 C468.95,184.93 466.64,184.00 464.50,184.00 C462.36,184.00 460.05,184.93 458.08,186.59 C455.31,188.91 455.00,189.75 455.00,194.78 C455.00,199.51 455.42,200.83 457.69,203.20 ZM 319.77 204.08 C321.56,205.69 324.05,207.00 325.29,207.00 C330.47,207.00 335.00,200.99 335.00,194.13 C335.00,185.27 325.86,180.78 319.31,186.41 C316.80,188.57 316.50,189.48 316.50,195.00 C316.50,200.70 316.75,201.38 319.77,204.08 ZM 542.65 206.17 C546.53,210.46 556.00,205.92 556.00,199.77 L 556.00 196.72 L 550.59 197.28 C547.61,197.59 544.23,198.34 543.09,198.95 C540.58,200.30 540.38,203.66 542.65,206.17 ZM 184.75 121.25 C183.79,122.21 181.69,123.00 180.08,123.00 C177.64,123.00 177.05,122.50 176.50,119.98 C175.96,117.55 176.29,116.58 178.17,115.05 C180.40,113.22 180.63,113.21 183.50,114.88 C186.91,116.85 187.28,118.72 184.75,121.25 ZM 160.89 129.43 C159.54,133.17 157.56,133.92 154.79,131.75 C152.10,129.63 151.76,126.53 154.00,124.50 C155.97,122.72 157.38,122.93 161.84,125.64 C162.03,125.76 161.60,127.46 160.89,129.43 ZM 207.81 131.19 C205.53,133.47 205.44,133.46 203.56,130.78 C201.51,127.85 201.59,126.29 203.86,125.07 C207.60,123.07 210.87,128.13 207.81,131.19 Z" fill="rgb(18,189,251)" data-index="0" style="opacity: 1;"></path>
<path d="M 181.50 124.67 C180.40,124.67 178.71,125.02 177.75,125.44 C176.27,126.09 176.00,125.67 176.00,122.73 C176.00,120.81 175.32,118.68 174.50,118.00 C172.28,116.16 172.67,115.00 175.52,115.00 C177.24,115.00 178.41,114.20 179.18,112.50 C179.81,111.12 180.65,110.00 181.05,110.00 C181.44,110.00 182.51,111.12 183.41,112.50 C184.43,114.05 185.98,115.00 187.52,115.00 C190.30,115.00 190.71,116.16 188.56,117.95 C187.76,118.61 186.98,120.58 186.81,122.32 C186.59,124.58 186.07,125.38 185.00,125.08 C184.18,124.85 182.60,124.66 181.50,124.67 ZM 154.64 160.50 C155.19,167.63 155.06,169.00 153.81,169.00 C151.34,169.00 151.15,168.14 151.68,159.44 C152.20,151.16 152.17,151.03 149.60,149.86 C148.17,149.21 147.00,148.32 147.00,147.89 C147.00,147.46 149.59,146.35 152.75,145.43 C155.91,144.51 162.77,142.19 168.00,140.28 C180.34,135.76 182.66,135.38 186.42,137.30 C187.63,137.92 190.96,139.18 194.87,140.57 C182.07,136.61 176.33,137.40 163.00,142.37 C153.81,145.79 151.50,147.04 151.50,148.58 C151.50,149.87 152.32,150.62 154.00,150.85 C155.38,151.04 156.73,151.52 157.00,151.91 C157.24,152.25 159.35,153.17 162.20,154.26 C158.26,152.93 155.32,152.00 154.94,152.00 C154.36,152.00 154.24,155.33 154.64,160.50 ZM 207.47 133.00 C206.20,133.00 204.49,133.26 203.68,133.57 C202.63,133.97 201.99,133.24 201.52,131.08 C201.15,129.40 200.43,127.77 199.92,127.45 C198.31,126.46 198.93,125.00 200.96,125.00 C202.05,125.00 203.43,124.06 204.05,122.91 L 205.17 120.81 L 207.40 122.91 C208.63,124.06 210.21,125.00 210.92,125.00 C211.77,125.00 211.96,125.61 211.48,126.75 C211.07,127.71 210.52,129.51 210.25,130.75 C209.92,132.29 209.04,133.00 207.47,133.00 ZM 184.75 121.25 C187.28,118.72 186.91,116.85 183.50,114.88 C180.63,113.21 180.40,113.22 178.17,115.05 C176.29,116.58 175.96,117.55 176.50,119.98 C177.05,122.50 177.64,123.00 180.08,123.00 C181.69,123.00 183.79,122.21 184.75,121.25 ZM 283.59 213.01 C295.29,213.00 295.71,212.93 296.75,210.66 C298.73,206.30 297.05,205.54 284.29,205.00 L 272.50 204.50 L 286.25 204.78 C295.53,204.97 298.81,204.94 299.67,206.37 C300.13,207.14 299.89,208.34 299.51,210.23 C299.46,210.44 299.42,210.65 299.38,210.88 L 298.75 214.00 L 281.45 214.00 C274.30,214.00 269.95,213.94 267.20,213.72 C267.43,213.69 267.67,213.66 267.92,213.61 C269.89,213.29 276.94,213.02 283.59,213.01 ZM 207.81 131.19 C210.87,128.13 207.60,123.07 203.86,125.07 C201.59,126.29 201.51,127.85 203.56,130.78 C205.44,133.46 205.53,133.47 207.81,131.19 ZM 189.88 248.36 C200.10,243.53 206.59,241.64 217.26,240.75 C205.04,241.87 196.45,244.61 189.57,249.50 C183.09,254.11 180.22,253.97 171.50,248.62 C164.87,244.55 158.27,242.29 148.92,241.11 C158.75,242.27 165.40,244.58 175.00,249.63 C178.87,251.67 183.78,251.25 189.88,248.36 ZM 175.68 161.88 C175.47,161.80 175.25,161.72 175.03,161.64 C170.89,160.18 166.26,158.98 164.75,158.99 C162.29,159.00 162.00,159.36 162.00,162.42 C162.00,167.25 162.89,169.00 165.36,169.01 C166.36,169.01 169.32,170.12 172.39,171.59 C170.46,170.89 168.37,170.34 166.73,170.14 L 161.50 169.50 L 161.20 163.25 C160.86,156.07 161.37,155.76 168.30,158.89 C170.14,159.72 173.14,160.93 175.68,161.88 ZM 194.86 155.77 C213.13,149.65 214.80,147.66 204.75,143.98 C204.38,143.84 204.02,143.71 203.66,143.58 C207.76,144.92 211.28,145.99 212.50,146.19 C215.69,146.73 214.82,149.31 211.00,150.61 C196.63,155.49 181.92,160.00 180.36,159.99 C180.22,159.99 179.97,159.95 179.64,159.88 C179.73,159.89 179.80,159.90 179.86,159.90 C181.16,159.96 187.91,158.09 194.86,155.77 ZM 124.01 200.24 C124.06,182.32 124.33,181.03 125.86,180.54 C126.88,180.22 128.46,180.24 129.36,180.58 C130.82,181.14 131.00,183.91 131.00,205.48 C131.00,223.71 131.31,230.00 132.25,230.74 C131.32,230.01 131.00,224.07 131.00,207.31 C131.00,189.18 130.72,184.58 129.57,183.43 C127.63,181.48 126.27,181.63 125.04,183.93 C124.48,184.97 124.14,191.77 124.01,200.24 ZM 157.88 133.00 C156.94,133.00 155.54,133.24 154.78,133.53 C152.94,134.24 152.00,133.17 152.00,130.39 C152.00,129.14 151.55,127.84 151.00,127.50 C149.38,126.50 149.86,125.00 151.80,125.00 C152.79,125.00 154.13,124.47 154.78,123.82 C155.24,123.36 155.92,123.20 156.86,123.37 C155.77,123.25 154.94,123.65 154.00,124.50 C151.76,126.53 152.10,129.63 154.79,131.75 C157.05,133.53 158.79,133.35 160.09,131.17 C159.41,132.33 158.62,133.00 157.88,133.00 ZM 407.75 212.07 L 410.64 210.90 L 410.50 214.24 L 406.99 214.45 C406.79,214.46 406.60,214.48 406.41,214.49 C405.02,214.58 403.98,214.64 403.22,214.39 C403.56,214.35 403.85,214.24 404.00,214.04 C404.27,213.68 405.96,212.79 407.75,212.07 ZM 411.03 201.37 L 411.00 202.04 L 411.00 200.33 C411.00,194.91 411.30,190.99 412.05,188.30 C411.66,190.86 411.25,195.98 411.03,201.37 ZM 130.43 239.69 C127.61,239.39 125.63,239.05 125.25,238.75 C124.49,238.15 124.15,233.51 124.04,220.77 C124.22,230.40 124.63,238.25 125.25,238.74 C125.62,239.04 127.60,239.38 130.43,239.69 ZM 401.39 211.23 C401.00,208.70 401.00,204.34 401.00,196.85 C401.00,196.23 401.00,195.58 401.00,194.92 C401.00,203.27 401.11,208.38 401.39,211.23 ZM 413.70 184.95 C415.02,183.47 416.90,183.11 419.52,183.56 C417.15,183.17 415.10,183.67 413.70,184.95 ZM 185.78 173.53 C183.43,174.87 181.27,175.96 181.00,175.95 C180.84,175.94 180.00,175.52 178.86,174.88 C180.06,175.47 180.87,175.85 181.00,175.88 C181.27,175.93 183.43,174.87 185.78,173.53 ZM 425.25 188.11 C424.49,185.09 422.98,184.26 419.96,183.64 C422.98,184.25 424.48,185.08 425.25,188.11 ZM 262.57 212.43 C262.56,212.41 262.54,212.40 262.52,212.38 C262.18,212.03 261.90,211.57 261.69,210.78 C261.91,211.58 262.20,212.04 262.57,212.43 Z" fill="rgb(58,192,239)" data-index="1" style="opacity: 1;"></path>
<path d="M 175.68 161.88 C173.14,160.93 170.14,159.72 168.30,158.89 C164.32,157.10 162.46,156.43 161.66,157.55 C162.40,156.43 164.03,156.93 167.35,158.44 C174.60,161.75 177.66,162.54 181.00,161.99 L 184.50 161.42 L 181.50 160.81 C179.85,160.48 173.41,158.36 167.20,156.10 C160.98,153.85 155.47,152.00 154.94,152.00 C155.32,152.00 158.27,152.93 162.20,154.26 C168.15,156.54 177.37,159.61 179.64,159.88 C179.97,159.95 180.22,159.99 180.36,159.99 C181.92,160.00 196.63,155.49 211.00,150.61 C214.42,149.44 215.48,147.24 213.36,146.42 C213.50,146.45 213.63,146.48 213.75,146.50 C215.54,146.86 217.00,147.51 217.00,147.94 C217.00,148.37 213.96,149.71 210.25,150.91 C203.57,153.08 190.83,157.93 190.14,158.55 C189.95,158.73 192.31,158.62 195.39,158.30 L 201.00 157.72 L 201.00 162.82 C200.99,158.76 200.69,158.00 199.12,158.00 C197.27,158.00 192.84,159.60 186.03,162.72 C182.82,164.19 182.24,164.19 175.68,161.88 ZM 154.32 168.88 C155.08,168.43 155.10,166.54 154.65,160.60 C155.14,167.00 155.20,168.65 154.32,168.88 ZM 203.01 143.35 C206.65,144.53 210.05,145.57 212.25,146.15 C210.85,145.86 207.51,144.84 203.66,143.58 C203.44,143.50 203.23,143.42 203.01,143.35 ZM 149.60 149.86 C151.43,150.70 151.97,151.00 151.94,154.08 C151.88,151.02 151.34,150.66 149.60,149.86 ZM 154.64 160.50 C154.26,155.53 154.35,152.26 154.87,152.02 C154.36,152.26 154.26,155.52 154.64,160.50 ZM 147.00 147.89 C147.00,148.32 148.15,149.20 149.57,149.85 C148.16,149.21 147.00,148.33 147.00,147.89 Z" fill="rgb(128,217,246)" data-index="2"></path>

</g>
</svg>