<svg width="500" height="150" viewBox="0 0 500 150" xmlns="http://www.w3.org/2000/svg">
  <text x="130" y="100" font-family="'Segoe UI', Roboto, Helvetica, Arial, sans-serif" font-weight="800" font-size="80" fill="#FFFFFF">Edu<tspan fill="#007EA7">NOVA</tspan></text>

  <g transform="translate(20, 20)">
    <path d="M 0,0 L 40,0 L 40,80 A 20,20 0 0 1 0,80 Z" fill="#FFFFFF" />
    
    <path d="M 50,20 L 90,20 L 90,80 A 20,20 0 0 1 50,80 Z" fill="#007EA7" />

    <polygon points="50,80 90,40 90,20 50,60" fill="#DAA520" />
    <polygon points="80,20 110,20 90,40" fill="#DAA520" />

    <path d="M 45,-10 L 55,10 L 75,15 L 55,20 L 45,40 L 35,20 L 15,15 L 35,10 Z" fill="#DAA520" />
  </g>
</svg>