<svg xmlns="http://www.w3.org/2000/svg" width="336" height="336" viewBox="0 0 336 336">
<g>
<path d="M 160.38 112.25 C162.74,114.60 161.14,114.37 152.50,111.14 C145.53,108.54 145.52,108.52 149.00,107.95 L 152.50 107.37 L 148.06 105.50 C140.06,102.13 145.44,102.86 154.54,106.38 C160.99,108.87 162.76,109.90 161.02,110.15 C158.74,110.48 158.71,110.58 160.38,112.25 ZM 119.50 102.75 C119.50,105.64 119.46,108.00 119.42,108.00 C118.48,107.98 118.00,105.53 118.00,100.83 C118.00,94.54 118.45,94.16 124.00,95.74 C126.35,96.41 126.29,96.48 123.00,96.97 C119.51,97.50 119.50,97.52 119.50,102.75 ZM 144.27 71.99 C141.65,72.93 138.71,74.04 137.75,74.45 C134.52,75.85 135.94,73.26 139.25,71.70 C142.91,69.97 150.89,68.32 149.77,69.51 C149.37,69.94 146.89,71.06 144.27,71.99 ZM 73.51 254.03 C74.31,256.56 73.38,256.58 72.04,254.07 C71.47,253.00 71.06,249.29 71.13,245.82 L 71.25 239.50 L 72.07 245.78 C72.52,249.24 73.17,252.95 73.51,254.03 ZM 168.42 17.81 C166.97,19.88 163.96,20.87 164.03,19.25 C164.07,18.29 169.01,14.67 169.55,15.21 C169.77,15.44 169.26,16.61 168.42,17.81 Z" fill="rgb(5,47,75)" data-index="0" style="opacity: 1;"></path>
<path d="M 185.50 273.96 C181.88,276.41 178.11,278.28 177.93,277.72 C177.90,277.60 177.64,252.93 177.38,222.89 L 176.89 168.29 L 179.56 165.11 C185.37,158.21 198.59,150.27 214.96,143.86 C219.11,142.23 223.85,140.29 225.50,139.54 C230.91,137.08 239.30,135.16 251.83,133.50 C263.09,132.02 264.38,132.02 266.58,133.46 L 269.00 135.05 L 269.00 190.37 C269.00,195.38 269.01,199.97 269.01,204.16 C269.05,238.41 269.06,246.36 265.59,248.42 C264.11,249.30 262.00,249.11 259.00,249.43 C232.45,252.20 203.37,261.90 185.50,273.96 ZM 169.76 222.04 C169.53,269.55 169.31,276.50 168.00,276.65 C167.18,276.75 163.35,274.86 159.50,272.46 C147.13,264.74 136.80,260.15 124.00,256.67 C106.07,251.80 103.68,251.29 92.00,249.91 C86.22,249.23 80.92,248.15 80.21,247.51 C79.18,246.58 78.92,234.94 78.94,190.60 C78.95,159.95 79.22,134.45 79.54,133.93 C81.20,131.25 104.45,134.08 118.50,138.66 C142.92,146.64 157.24,154.21 166.76,164.20 L 170.02 167.61 ZM 190.51 294.42 C181.29,300.22 178.69,301.39 174.50,301.65 C168.56,302.01 168.53,301.99 159.54,295.99 C145.87,286.84 129.48,280.48 111.67,277.39 C106.47,276.49 93.63,275.57 82.02,275.27 C66.29,274.86 61.00,274.39 59.27,273.25 L 57.00 271.77 L 57.00 155.11 L 59.22 153.56 C62.45,151.30 68.67,151.51 69.96,153.93 C70.63,155.18 71.00,170.31 71.00,196.21 C71.00,234.18 71.87,251.02 74.04,255.07 C74.78,256.47 76.90,256.94 84.73,257.46 C116.97,259.58 145.28,269.14 166.71,285.12 C169.57,287.25 172.61,289.00 173.47,289.00 C174.32,289.00 179.35,286.04 184.64,282.43 C204.75,268.70 230.86,260.14 259.34,257.93 C270.24,257.09 272.78,256.59 274.11,255.02 C276.42,252.29 277.25,232.98 276.87,190.41 C276.54,152.63 276.61,152.00 281.58,152.00 C285.49,152.00 288.85,154.12 289.95,157.29 C290.63,159.25 291.00,179.25 291.00,214.57 L 291.00 268.85 L 286.09 274.68 L 265.29 275.31 C240.92,276.05 231.01,277.60 214.01,283.31 C204.51,286.49 198.88,289.16 190.51,294.42 ZM 144.27 71.99 C146.89,71.06 149.37,69.94 149.77,69.51 C150.07,69.20 149.73,69.08 149.01,69.11 C155.90,67.63 160.21,66.35 165.44,64.31 C172.98,61.38 175.35,61.41 183.70,64.56 C191.95,67.67 227.43,80.06 238.50,83.70 C242.90,85.14 246.70,86.48 246.93,86.68 C248.24,87.75 242.92,89.91 220.39,97.47 C206.70,102.06 191.09,107.44 185.70,109.41 C174.56,113.49 173.78,113.58 167.47,111.44 C164.94,110.58 161.96,110.02 160.84,110.19 C159.00,110.47 158.87,110.54 160.30,112.17 C158.71,110.58 158.77,110.48 161.02,110.15 C162.76,109.90 160.99,108.87 154.54,106.38 C147.66,103.72 142.90,102.65 144.45,103.75 C135.98,100.07 125.23,96.84 122.27,97.18 L 121.16 97.31 C121.63,97.18 122.23,97.09 123.00,96.97 C126.29,96.48 126.35,96.41 124.00,95.74 C118.45,94.16 118.00,94.54 118.00,100.83 C118.00,105.50 118.48,107.95 119.40,108.00 C119.41,113.03 119.90,118.92 120.53,121.50 C122.18,128.18 121.11,130.22 116.18,129.81 L 112.50 129.50 L 112.62 124.50 C112.68,121.75 112.81,117.93 112.91,116.00 C113.00,114.07 113.04,111.60 112.98,110.50 C112.93,109.40 113.19,105.47 113.58,101.77 C114.40,93.76 113.82,92.76 106.93,90.48 C104.23,89.58 101.78,88.46 101.49,87.98 C100.76,86.80 107.51,83.93 122.48,79.08 C128.71,77.07 134.68,74.67 136.67,73.42 C135.51,74.55 135.60,75.39 137.75,74.45 C138.71,74.04 141.65,72.93 144.27,71.99 ZM 176.44 144.08 C173.76,146.57 173.16,146.48 169.17,143.07 C163.61,138.31 153.90,133.96 146.43,132.87 C142.62,132.32 137.93,131.56 136.00,131.18 L 132.50 130.50 L 132.57 118.26 C132.61,111.54 132.88,105.79 133.17,105.50 C133.46,105.20 136.36,105.77 139.60,106.76 C142.64,107.68 146.03,108.19 148.19,108.08 C145.57,108.54 146.12,108.76 152.50,111.14 C160.18,114.01 162.30,114.51 161.02,112.93 C163.51,115.27 170.13,118.00 173.49,118.00 C174.84,118.00 178.40,116.88 181.41,115.50 C184.41,114.12 187.34,113.00 187.91,113.00 C188.49,113.00 194.38,111.18 201.01,108.96 C207.63,106.73 213.49,105.19 214.03,105.52 C214.57,105.85 215.00,111.53 215.00,118.44 C215.00,118.88 215.00,119.30 215.00,119.71 C215.01,126.66 215.01,129.67 213.52,130.97 C212.38,131.97 210.38,131.98 206.85,131.99 C206.57,132.00 206.29,132.00 206.00,132.00 C203.52,132.01 199.25,132.64 196.50,133.39 C191.20,134.83 179.89,140.86 176.44,144.08 ZM 168.42 17.81 C169.26,16.61 169.77,15.44 169.55,15.21 C169.34,15.01 168.53,15.39 167.59,15.99 C167.70,15.91 167.79,15.84 167.89,15.77 C168.87,15.07 170.31,13.18 171.09,11.57 C173.22,7.16 174.40,7.46 177.04,13.09 C179.60,18.55 181.79,20.00 187.51,20.00 C192.44,20.00 192.71,21.69 188.46,26.05 C184.80,29.79 184.69,30.12 184.89,36.46 C185.14,43.99 184.87,44.14 178.00,40.40 L 173.23 37.81 L 168.58 40.40 C166.02,41.83 163.47,43.00 162.91,43.00 C162.27,43.00 162.15,40.82 162.59,36.93 L 163.27 30.86 L 159.02 26.52 C156.68,24.14 155.07,21.69 155.44,21.09 C155.81,20.49 157.70,20.00 159.63,20.00 C161.30,20.00 163.19,19.51 164.21,18.85 C164.10,19.01 164.04,19.14 164.03,19.25 C163.96,20.87 166.97,19.88 168.42,17.81 ZM 120.10 57.28 C114.87,60.37 113.68,59.70 114.23,53.97 C114.68,49.27 114.49,48.73 111.24,45.57 C107.15,41.60 107.65,40.00 112.99,40.00 C117.28,40.00 119.69,38.18 121.22,33.81 C122.57,29.92 124.60,30.30 126.94,34.88 C129.07,39.05 130.56,40.00 135.02,40.00 C139.47,40.00 139.67,41.94 135.57,45.38 C131.90,48.47 131.87,48.56 132.58,53.91 C132.60,54.08 132.63,54.25 132.65,54.41 C132.98,56.87 133.15,58.19 132.61,58.64 C131.98,59.17 130.36,58.52 126.88,57.12 C126.67,57.04 126.47,56.95 126.25,56.87 C123.44,55.74 122.62,55.79 120.10,57.28 ZM 232.66 53.78 C233.37,59.81 232.54,60.27 227.14,56.81 C224.40,55.06 223.42,54.88 221.90,55.83 C219.43,57.37 215.28,57.33 214.72,55.75 C214.47,55.06 214.47,53.15 214.72,51.50 C215.07,49.12 214.52,47.89 212.08,45.56 C207.86,41.54 208.09,40.00 212.93,40.00 C217.28,40.00 219.06,38.69 220.96,34.09 C221.67,32.39 222.61,31.00 223.06,31.00 C223.50,31.00 225.15,32.91 226.71,35.25 C229.02,38.69 230.22,39.56 233.03,39.82 C238.31,40.31 238.81,41.57 235.22,45.27 C232.24,48.35 232.08,48.88 232.66,53.78 ZM 73.51 254.03 C73.17,252.95 72.52,249.24 72.07,245.78 L 71.25 239.50 L 71.13 245.82 C71.06,249.29 71.47,253.00 72.04,254.07 C73.38,256.58 74.31,256.56 73.51,254.03 ZM 150.45 106.51 L 152.50 107.37 L 152.36 107.39 Z" fill="rgb(14,168,232)" data-index="1" style="opacity: 1;"></path>

<path d="M 214.08 57.25 C214.12,55.74 214.38,55.06 214.66,55.75 C214.94,56.44 216.14,57.01 217.33,57.03 C219.45,57.06 219.46,57.10 217.56,58.53 C214.76,60.65 213.99,60.36 214.08,57.25 Z" fill="rgb(21,110,150)" data-index="3"></path>
</g>
</svg>